<svg xmlns="http://www.w3.org/2000/svg" viewBox="0 0 512 512" role="img" aria-label="One Call Solution">
<defs>
  <linearGradient id="g" x1="70" y1="80" x2="440" y2="420" gradientUnits="userSpaceOnUse">
    <stop offset="0" stop-color="#063f78"/>
    <stop offset=".46" stop-color="#075a77"/>
    <stop offset="1" stop-color="#08a77d"/>
  </linearGradient>
  <linearGradient id="t" x1="286" y1="300" x2="430" y2="430" gradientUnits="userSpaceOnUse">
    <stop stop-color="#079b83"/><stop offset="1" stop-color="#08b978"/>
  </linearGradient>
</defs>
<circle cx="256" cy="256" r="244" fill="#fff"/>
<path d="M79 172C109 92 182 42 270 37c89-5 170 39 207 115 18 37 27 79 23 120-3 33-13 65-28 93" fill="none" stroke="url(#g)" stroke-width="31" stroke-linecap="round"/>
<path d="M469 323c-19 62-60 112-116 141-52 27-116 35-173 19-53-15-99-52-126-100" fill="none" stroke="url(#g)" stroke-width="17" stroke-linecap="round"/>
<path d="M151 205l105-85 111 86v91c0 15-12 27-27 27H178c-15 0-27-12-27-27z" fill="#fff"/>
<path d="M139 205l117-95 118 96" fill="none" stroke="#063f78" stroke-width="30" stroke-linecap="round" stroke-linejoin="round"/>
<path d="M337 149v-42h28v66" fill="#063f78"/>
<g fill="#063f78">
  <rect x="226" y="210" width="30" height="30" rx="2"/>
  <rect x="264" y="210" width="30" height="30" rx="2"/>
  <rect x="226" y="248" width="30" height="30" rx="2"/>
  <rect x="264" y="248" width="30" height="30" rx="2"/>
</g>
<path d="M145 172c-14 0-29 13-35 28-24 62 11 156 83 208 18 13 39 17 53 7l36-27c9-7 10-21 2-30l-43-46c-8-9-21-10-30-2l-24 19c-31-27-49-57-58-91l30-17c11-6 15-19 9-30l-13-24c-3-5-6-10-10-14z" fill="#063f78"/>
<path d="M349 278c-19 0-36 9-47 23l34 13-1 31-27 27c12 13 29 20 47 20 36 0 65-29 65-65 0-8-2-16-4-23l-29 30-30-7-8-29 30-30c-9-3-19-5-30-5z" fill="url(#t)"/>
<path d="M331 364l-82 82 31 31 83-83z" fill="url(#t)"/>
</svg>